<svg id="visual" viewBox="0 0 9000 2000" width="9000" height="2000" xmlns="http://www.w3.org/2000/svg" xmlns:xlink="http://www.w3.org/1999/xlink" version="1.1"><rect x="0" y="0" width="9000" height="2000" fill="#ffffff"></rect><path d="M0 1484L375 1463.3C750 1442.7 1500 1401.3 2250 1293.7C3000 1186 3750 1012 4500 894.2C5250 776.3 6000 714.7 6750 812.8C7500 911 8250 1169 8625 1298L9000 1427L9000 0L8625 0C8250 0 7500 0 6750 0C6000 0 5250 0 4500 0C3750 0 3000 0 2250 0C1500 0 750 0 375 0L0 0Z" fill="#f0be28" stroke-linecap="round" stroke-linejoin="miter"></path></svg>